<svg width="25" height="18" viewBox="0 0 25 18" fill="none" xmlns="http://www.w3.org/2000/svg">
<path d="M23 0H2C0.89543 0 0 0.89543 0 2C0 3.10457 0.89543 4 2 4H23C24.1046 4 25 3.10457 25 2C25 0.89543 24.1046 0 23 0Z" fill="black"/>
<path d="M23 0.5H2C1.17157 0.5 0.5 1.17157 0.5 2C0.5 2.82843 1.17157 3.5 2 3.5H23C23.8284 3.5 24.5 2.82843 24.5 2C24.5 1.17157 23.8284 0.5 23 0.5Z" stroke="#707070"/>
<path d="M23 7H2C0.89543 7 0 7.89543 0 9C0 10.1046 0.89543 11 2 11H23C24.1046 11 25 10.1046 25 9C25 7.89543 24.1046 7 23 7Z" fill="black"/>
<path d="M23 7.5H2C1.17157 7.5 0.5 8.17157 0.5 9C0.5 9.82843 1.17157 10.5 2 10.5H23C23.8284 10.5 24.5 9.82843 24.5 9C24.5 8.17157 23.8284 7.5 23 7.5Z" stroke="#707070"/>
<path d="M23 14H2C0.89543 14 0 14.8954 0 16C0 17.1046 0.89543 18 2 18H23C24.1046 18 25 17.1046 25 16C25 14.8954 24.1046 14 23 14Z" fill="black"/>
<path d="M23 14.5H2C1.17157 14.5 0.5 15.1716 0.5 16C0.5 16.8284 1.17157 17.5 2 17.5H23C23.8284 17.5 24.5 16.8284 24.5 16C24.5 15.1716 23.8284 14.5 23 14.5Z" stroke="#707070"/>
</svg>
