<svg width="28" height="28" viewBox="0 0 28 28" fill="none" xmlns="http://www.w3.org/2000/svg">
<path d="M11 0H2C0.89543 0 0 0.89543 0 2V11C0 12.1046 0.89543 13 2 13H11C12.1046 13 13 12.1046 13 11V2C13 0.89543 12.1046 0 11 0Z" fill="white"/>
<path d="M11 0.5H2C1.17157 0.5 0.5 1.17157 0.5 2V11C0.5 11.8284 1.17157 12.5 2 12.5H11C11.8284 12.5 12.5 11.8284 12.5 11V2C12.5 1.17157 11.8284 0.5 11 0.5Z" stroke="#707070"/>
<path d="M26 0H17C15.8954 0 15 0.89543 15 2V11C15 12.1046 15.8954 13 17 13H26C27.1046 13 28 12.1046 28 11V2C28 0.89543 27.1046 0 26 0Z" fill="white"/>
<path d="M26 0.5H17C16.1716 0.5 15.5 1.17157 15.5 2V11C15.5 11.8284 16.1716 12.5 17 12.5H26C26.8284 12.5 27.5 11.8284 27.5 11V2C27.5 1.17157 26.8284 0.5 26 0.5Z" stroke="#707070"/>
<path d="M11 15H2C0.89543 15 0 15.8954 0 17V26C0 27.1046 0.89543 28 2 28H11C12.1046 28 13 27.1046 13 26V17C13 15.8954 12.1046 15 11 15Z" fill="white"/>
<path d="M11 15.5H2C1.17157 15.5 0.5 16.1716 0.5 17V26C0.5 26.8284 1.17157 27.5 2 27.5H11C11.8284 27.5 12.5 26.8284 12.5 26V17C12.5 16.1716 11.8284 15.5 11 15.5Z" stroke="#707070"/>
<path d="M26 15H17C15.8954 15 15 15.8954 15 17V26C15 27.1046 15.8954 28 17 28H26C27.1046 28 28 27.1046 28 26V17C28 15.8954 27.1046 15 26 15Z" fill="white"/>
<path d="M26 15.5H17C16.1716 15.5 15.5 16.1716 15.5 17V26C15.5 26.8284 16.1716 27.5 17 27.5H26C26.8284 27.5 27.5 26.8284 27.5 26V17C27.5 16.1716 26.8284 15.5 26 15.5Z" stroke="#707070"/>
</svg>
