<svg width="28" height="28" viewBox="0 0 28 28" fill="none" xmlns="http://www.w3.org/2000/svg">
<path d="M11 0H2C0.89543 0 0 0.89543 0 2V11C0 12.1046 0.89543 13 2 13H11C12.1046 13 13 12.1046 13 11V2C13 0.89543 12.1046 0 11 0Z" fill="#707070"/>
<path d="M26 0H17C15.8954 0 15 0.89543 15 2V11C15 12.1046 15.8954 13 17 13H26C27.1046 13 28 12.1046 28 11V2C28 0.89543 27.1046 0 26 0Z" fill="#707070"/>
<path d="M11 15H2C0.89543 15 0 15.8954 0 17V26C0 27.1046 0.89543 28 2 28H11C12.1046 28 13 27.1046 13 26V17C13 15.8954 12.1046 15 11 15Z" fill="#707070"/>
<path d="M26 15H17C15.8954 15 15 15.8954 15 17V26C15 27.1046 15.8954 28 17 28H26C27.1046 28 28 27.1046 28 26V17C28 15.8954 27.1046 15 26 15Z" fill="#707070"/>
</svg>
