<svg xmlns="http://www.w3.org/2000/svg" viewBox="0 0 67.26 40.68"><defs><style>.cls-1{fill:#cf2b91;}.cls-2{fill:#373637;}</style></defs><g id="레이어_2" data-name="레이어 2"><g id="Layer_1" data-name="Layer 1"><path class="cls-1" d="M16.29,8.72h4.92V21H16.29Z"/><path class="cls-1" d="M23.56,8.72h4.62V11A4.83,4.83,0,0,1,29,10a5.72,5.72,0,0,1,1.1-.84,6.32,6.32,0,0,1,1.3-.57,4.75,4.75,0,0,1,1.39-.22,4.12,4.12,0,0,1,1.1.16,4.12,4.12,0,0,1,1.93,1.27,4.77,4.77,0,0,1,.71,1.09,4.5,4.5,0,0,1,.91-1,6.66,6.66,0,0,1,1.25-.8,7.55,7.55,0,0,1,1.45-.52,6.68,6.68,0,0,1,1.53-.19,5.4,5.4,0,0,1,2.09.36,3.41,3.41,0,0,1,1.39,1,4.08,4.08,0,0,1,.77,1.56,7.91,7.91,0,0,1,.24,2V21H41.23v-7a5.79,5.79,0,0,0-.07-.76,2.82,2.82,0,0,0-.28-.8,2,2,0,0,0-.57-.65,1.59,1.59,0,0,0-.94-.26,1.55,1.55,0,0,0-.75.19,2.18,2.18,0,0,0-.62.52,2.33,2.33,0,0,0-.44.73,2.41,2.41,0,0,0-.16.84V21H32.48v-7a4.6,4.6,0,0,0-.08-.91,2.4,2.4,0,0,0-.29-.79,1.58,1.58,0,0,0-.56-.56,1.7,1.7,0,0,0-.89-.21,2.42,2.42,0,0,0-.77.14,2.8,2.8,0,0,0-.7.39,1.93,1.93,0,0,0-.51.59,1.35,1.35,0,0,0-.2.74V21H23.56Z"/><path class="cls-1" d="M21.39,3.31A2.68,2.68,0,1,1,18.71.63,2.68,2.68,0,0,1,21.39,3.31Z"/><path class="cls-2" d="M13.86,14.12V0H8.94V7.91a6.83,6.83,0,0,0-1.88-.25,6.9,6.9,0,0,0-5,2A6.52,6.52,0,0,0,0,14.5a6.57,6.57,0,0,0,2,4.86,6.72,6.72,0,0,0,4.9,2,6.73,6.73,0,0,0,4.9-2,6.6,6.6,0,0,0,2-4.87Zm-7,2.79a2.42,2.42,0,1,1,2.41-2.42A2.41,2.41,0,0,1,6.88,16.91Z"/><path class="cls-2" d="M61.37,11.1h0a6.9,6.9,0,0,0-1.11-1.4,7,7,0,0,0-9.8,0,6.6,6.6,0,0,0-2,4.86,6.54,6.54,0,0,0,2,4.87,7,7,0,0,0,5,2,6.54,6.54,0,0,0,4.8-2,6.42,6.42,0,0,0,.43-.48l1.68,2.47,4.09-2.73ZM55.31,17a2.42,2.42,0,1,1,2.41-2.42A2.41,2.41,0,0,1,55.31,17Z"/><path class="cls-2" d="M.17,40.64V37.22H1a1,1,0,0,1,.69.23.83.83,0,0,1,.25.66v1.65a.8.8,0,0,1-.25.65,1,1,0,0,1-.69.23Zm.44-.33H1a.51.51,0,0,0,.37-.13.46.46,0,0,0,.14-.34V38a.47.47,0,0,0-.14-.35A.55.55,0,0,0,1,37.55H.61Z"/><path class="cls-2" d="M4.25,39.8a.84.84,0,0,1-.24.64.94.94,0,0,1-.7.24.93.93,0,0,1-.69-.24.84.84,0,0,1-.24-.64V38.07a.85.85,0,0,1,.24-.65,1,1,0,0,1,.69-.23,1,1,0,0,1,.7.23.85.85,0,0,1,.24.65Zm-1.44.08a.45.45,0,0,0,.14.35.6.6,0,0,0,.72,0,.43.43,0,0,0,.15-.35V38a.44.44,0,0,0-.15-.35.6.6,0,0,0-.72,0,.47.47,0,0,0-.14.35Z"/><path class="cls-2" d="M6.73,40.64H6.11l-.9-3.11v3.11H4.78V37.22h.71l.8,3v-3h.44Z"/><path class="cls-2" d="M9.05,40.64H8.19a1,1,0,0,1-.69-.22.83.83,0,0,1-.25-.66V38.1a.79.79,0,0,1,.27-.65,1,1,0,0,1,.71-.23H9v.33H8.19a.51.51,0,0,0-.37.13.46.46,0,0,0-.14.34v1.83a.48.48,0,0,0,.13.34.48.48,0,0,0,.36.13h.45V39H8.18v-.33h.87Z"/><path class="cls-2" d="M9.41,39v-.32h1.14V39Z"/><path class="cls-2" d="M11.35,37.22H12l.74,3.42h-.4l-.24-1h-.89l-.22,1h-.42ZM12,39.3l-.36-1.76h0l-.36,1.76Z"/><path class="cls-2" d="M14.59,39h-1v1.65h-.43V37.22h.43v1.45h1V37.22H15v3.42h-.43Z"/><path class="cls-2" d="M16.47,40.64V37.22h.43v3.42Z"/><path class="cls-2" d="M19.52,40.64h-.61L18,37.53v3.11h-.43V37.22h.72l.8,3v-3h.43Z"/><path class="cls-2" d="M21.07,40.15a.58.58,0,0,0,.13-.38.89.89,0,0,0-.08-.38.8.8,0,0,0-.2-.24l-.27-.2-.26-.21a.64.64,0,0,1-.2-.27,1,1,0,0,1,.15-1,.87.87,0,0,1,.65-.24h.39v.32H21a.41.41,0,0,0-.36.16.51.51,0,0,0-.12.32.62.62,0,0,0,.08.31.8.8,0,0,0,.2.21l.27.19.27.23a1,1,0,0,1,.2.31,1.23,1.23,0,0,1,.08.44.91.91,0,0,1-.26.7,1.09,1.09,0,0,1-.72.23h-.51v-.32h.53A.46.46,0,0,0,21.07,40.15Z"/><path class="cls-2" d="M22.53,40.64v-3.1h-.68v-.32h1.8v.32H23v3.1Z"/><path class="cls-2" d="M24.1,40.64V37.22h.43v3.42Z"/><path class="cls-2" d="M25.67,40.64v-3.1H25v-.32h1.8v.32H26.1v3.1Z"/><path class="cls-2" d="M27.09,37.22h.43v2.66a.46.46,0,0,0,.12.35.41.41,0,0,0,.32.12.44.44,0,0,0,.32-.12.46.46,0,0,0,.11-.35V37.22h.43V39.8a.87.87,0,1,1-1.73,0Z"/><path class="cls-2" d="M29.82,40.64v-3.1h-.69v-.32h1.8v.32h-.68v3.1Z"/><path class="cls-2" d="M31.38,40.64V37.22h1.49v.33H31.81v1.1h.86V39h-.86v1.33h1.11v.33Z"/><path class="cls-2" d="M35.93,39.8a.84.84,0,0,1-.24.64,1.13,1.13,0,0,1-1.39,0,.84.84,0,0,1-.24-.64V38.07a.85.85,0,0,1,.24-.65,1.17,1.17,0,0,1,1.39,0,.85.85,0,0,1,.24.65Zm-1.44.08a.43.43,0,0,0,.15.35.51.51,0,0,0,.35.12.57.57,0,0,0,.37-.12.45.45,0,0,0,.14-.35V38a.47.47,0,0,0-.14-.35.57.57,0,0,0-.37-.12.51.51,0,0,0-.35.12.44.44,0,0,0-.15.35Z"/><path class="cls-2" d="M36.5,40.64V37.22h1.44v.33h-1v1.18h.76v.33h-.76v1.58Z"/><path class="cls-2" d="M39.51,40.64h-.43V37.22h.65l.65,2h0l.67-2h.62v3.42h-.43V37.73l-.65,2h-.47l-.65-2Z"/><path class="cls-2" d="M42.38,40.64V37.22h1.48v.33H42.8v1.1h.86V39H42.8v1.33h1.11v.33Z"/><path class="cls-2" d="M44.46,40.64V37.22h.85a1,1,0,0,1,.69.23.86.86,0,0,1,.24.66v1.65a.82.82,0,0,1-.24.65,1,1,0,0,1-.69.23Zm.44-.33h.41a.48.48,0,0,0,.36-.13.42.42,0,0,0,.14-.34V38a.43.43,0,0,0-.14-.35.53.53,0,0,0-.36-.13H44.9Z"/><path class="cls-2" d="M46.81,40.64V37.22h.43v3.42Z"/><path class="cls-2" d="M48.47,37.22h.65l.74,3.42h-.4l-.24-1h-.89l-.22,1h-.42Zm.68,2.08-.36-1.76h0L48.4,39.3Z"/><path class="cls-2" d="M51.56,37.22h.65L53,40.64h-.4l-.24-1h-.89l-.22,1h-.41Zm.68,2.08-.35-1.76h0L51.5,39.3Z"/><path class="cls-2" d="M55.32,40.64H54.7l-.9-3.11v3.11h-.43V37.22h.71l.8,3v-3h.44Z"/><path class="cls-2" d="M56,40.64V37.22h.85a1,1,0,0,1,.69.23.83.83,0,0,1,.25.66v1.65a.8.8,0,0,1-.25.65,1,1,0,0,1-.69.23Zm.44-.33h.41a.51.51,0,0,0,.37-.13.46.46,0,0,0,.14-.34V38a.47.47,0,0,0-.14-.35.55.55,0,0,0-.37-.13h-.41Z"/><path class="cls-2" d="M59.58,37.22h.65L61,40.64h-.4l-.24-1h-.89l-.22,1h-.41Zm.68,2.08-.35-1.76h0l-.35,1.76Z"/><path class="cls-2" d="M61.85,39.14v1.5h-.42V37.22h.9c.59,0,.88.3.88.91a1.26,1.26,0,0,1-.13.6.76.76,0,0,1-.38.35l.68,1.56H63l-.66-1.5Zm0-1.6v1.28h.34a.57.57,0,0,0,.44-.19.8.8,0,0,0,.15-.5.52.52,0,0,0-.59-.59Z"/><path class="cls-2" d="M64.26,40.64v-3.1h-.68v-.32h1.79v.32h-.68v3.1Z"/><path class="cls-2" d="M66.7,40.15a.58.58,0,0,0,.13-.38.89.89,0,0,0-.08-.38.8.8,0,0,0-.2-.24l-.27-.2L66,38.74a.64.64,0,0,1-.2-.27.8.8,0,0,1-.09-.39.81.81,0,0,1,.24-.62.87.87,0,0,1,.65-.24H67v.32h-.37a.41.41,0,0,0-.36.16.51.51,0,0,0-.12.32.62.62,0,0,0,.08.31.8.8,0,0,0,.2.21l.27.19L67,39a1,1,0,0,1,.2.31,1.23,1.23,0,0,1,.08.44.91.91,0,0,1-.26.7,1.09,1.09,0,0,1-.72.23h-.51v-.32h.53A.46.46,0,0,0,66.7,40.15Z"/><path class="cls-2" d="M4.22,30.23v-.76H6.27v-.93H2.07v-1H6.24v-1H1.78a.63.63,0,0,0-.51.2.76.76,0,0,0-.18.53v1.43a.72.72,0,0,0,.2.54.76.76,0,0,0,.56.19H3.24v.73h-3v.91H2.76a1.84,1.84,0,0,0-1,1.61A1.61,1.61,0,0,0,2.38,34a2,2,0,0,0,2.71,0,1.64,1.64,0,0,0,.61-1.26,1.74,1.74,0,0,0-.61-1.33,2.07,2.07,0,0,0-.4-.28H7.25v-.91Zm.21,3.12a1,1,0,0,1-.71.26,1,1,0,0,1-.7-.26.83.83,0,0,1-.3-.64A.86.86,0,0,1,3,32.07a1,1,0,0,1,.72-.27,1,1,0,0,1,.71.27.84.84,0,0,1,.3.64A.83.83,0,0,1,4.43,33.35Z"/><path class="cls-2" d="M9.6,27a2.12,2.12,0,0,0-1.53.63,2.07,2.07,0,0,0-.64,1.53,2,2,0,0,0,.65,1.51,2.13,2.13,0,0,0,1.53.63,2.09,2.09,0,0,0,1.51-.63,2,2,0,0,0,.66-1.51,2.08,2.08,0,0,0-.65-1.53A2.13,2.13,0,0,0,9.6,27Zm.85,3a1.18,1.18,0,0,1-1.7,0,1.12,1.12,0,0,1-.35-.82,1.16,1.16,0,0,1,.34-.83,1.2,1.2,0,0,1,1.69,0,1.09,1.09,0,0,1,.37.83A1.14,1.14,0,0,1,10.45,30Z"/><path class="cls-2" d="M13.45,28.65V26.56h-1v7.83h1V29.57H14.7v-.91H13.45Z"/><path class="cls-2" d="M20.55,31.42a2,2,0,0,0-1.37-.53,2,2,0,0,0-1.35.53,1.77,1.77,0,0,0-.59,1.33,1.62,1.62,0,0,0,.6,1.26,2,2,0,0,0,2.71,0,1.63,1.63,0,0,0,.6-1.26A1.73,1.73,0,0,0,20.55,31.42Zm-.66,1.93a1.09,1.09,0,0,1-1.41,0,.85.85,0,0,1,0-1.28,1,1,0,0,1,.71-.27,1,1,0,0,1,.72.27.83.83,0,0,1,.29.64A.82.82,0,0,1,19.89,33.35Z"/><path class="cls-2" d="M21.19,28.09V26.56h-1v4.29h1V29h1.18V28.1H21.19Z"/><path class="cls-2" d="M19.05,30.33a.8.8,0,0,0,.16-.53v-3h-1v1H16.47v-1h-1v3.07a.75.75,0,0,0,.17.53.66.66,0,0,0,.52.21h2.36A.57.57,0,0,0,19.05,30.33Zm-.8-.74s0,.05,0,.06H16.47v-.92h1.78v.87Z"/><path class="cls-2" d="M26.61,30.21h0V29h-1V30.2h-3v.92h2.59a1.91,1.91,0,0,0-.41.29,1.77,1.77,0,0,0-.59,1.33,1.62,1.62,0,0,0,.6,1.26,2,2,0,0,0,2.71,0,1.64,1.64,0,0,0,.61-1.26,1.74,1.74,0,0,0-.61-1.33,2.19,2.19,0,0,0-.41-.29h2.56v-.92h-3Zm.23,3.14a1.09,1.09,0,0,1-1.41,0,.83.83,0,0,1-.3-.64.86.86,0,0,1,.28-.64,1,1,0,0,1,.71-.27,1,1,0,0,1,.72.27.84.84,0,0,1,.3.64A.83.83,0,0,1,26.84,33.35Z"/><path class="cls-2" d="M56.66,30.44a1.65,1.65,0,0,0,.6-1.27,1.67,1.67,0,0,0-.36-1.05h.76V27.2H55.77v-.84h-1v.84h-1.9v.92h.8a1.71,1.71,0,0,0-.34,1.05,1.66,1.66,0,0,0,.59,1.27A2,2,0,0,0,55.3,31,2,2,0,0,0,56.66,30.44Zm-2.08-.67a.81.81,0,0,1-.3-.63.86.86,0,0,1,.28-.64,1,1,0,0,1,.72-.27,1,1,0,0,1,.71.27.83.83,0,0,1,.3.64.81.81,0,0,1-.3.63,1.06,1.06,0,0,1-1.41,0Z"/><rect class="cls-2" x="36.18" y="26.56" width="0.95" height="7.83"/><path class="cls-2" d="M37.89,30.66h3v.47H38.71v.8h4.38a.07.07,0,0,1,0,.05v.27a.17.17,0,0,1,0,.07H39a.36.36,0,0,0-.39.41v.91a.77.77,0,0,0,.16.5.65.65,0,0,0,.52.23h4.91V33.6H39.58s0,0,0-.05v-.41h3.88a.62.62,0,0,0,.63-.7v-.91c0-.19-.08-.4-.44-.4H41.87v-.47h3.07v-.8h-7Z"/><path class="cls-2" d="M51.14,28.77h-.65V26.62h-.94v4.72l-1,.07-.85,0h-.94a.07.07,0,0,1,0-.05V28.05h2v-.94H46.46a.69.69,0,0,0-.48.17.64.64,0,0,0-.19.48V31.6a.78.78,0,0,0,.2.54.75.75,0,0,0,.57.23h1.15c.26,0,.55,0,.85,0l1-.08v2.14h.94V29.67h.65v4.72h1V26.56h-1Z"/><path class="cls-2" d="M58.47,31.41H54v.94h4.09c.07,0,.09,0,.1,0s0,0,0,.08v1.92h1V32.15a.76.76,0,0,0-.17-.52A.66.66,0,0,0,58.47,31.41Z"/><path class="cls-2" d="M60.34,28.27H59.17a.15.15,0,0,1,0-.06V26.56h-1V31h1v-1.8h1.18Z"/><path class="cls-2" d="M65.24,27.94a.24.24,0,0,1,0,.09V31.4h1V27.7a.67.67,0,0,0-.18-.46A.57.57,0,0,0,65.6,27H61v.91h4.29Z"/><path class="cls-2" d="M64.53,32.62h0v-3h-1v3H62.7v-3h-1v2.94s0,0,0,0H60.29v.92H67v-.92Z"/><path class="cls-2" d="M34.69,27.78H33.54l-.11-.11a2.09,2.09,0,0,0-3.55,1.48,1.94,1.94,0,0,0,.63,1.45,2,2,0,0,0,1.47.6,2,2,0,0,0,1.45-.6l0-.05h1.21s0,0,0,.05v3.78h.93V26.62h-.93Zm-1.91,2.16a1.14,1.14,0,0,1-.81.34,1.18,1.18,0,0,1-.82-.34,1.1,1.1,0,0,1-.34-.79A1.14,1.14,0,0,1,32,28a1.13,1.13,0,0,1,.81.33,1.1,1.1,0,0,1,0,1.6Zm1.91-.28H34a1.79,1.79,0,0,0,.07-.51,2.34,2.34,0,0,0,0-.47h.66a.2.2,0,0,1,0,0Z"/><polygon class="cls-2" points="26.12 27.83 28.18 29.84 28.9 29.2 26.11 26.48 23.39 29.18 24.1 29.85 26.12 27.83"/><polygon class="cls-2" points="41.39 27.66 43.45 29.51 44.1 28.85 41.38 26.42 38.73 28.85 39.37 29.52 41.39 27.66"/></g></g></svg>