<svg width="549" height="123" viewBox="0 0 549 123" fill="none" xmlns="http://www.w3.org/2000/svg">
<path d="M152.825 0.427855C169.216 0.427855 182.504 13.7159 182.504 30.1065C182.504 46.4985 169.216 59.7879 152.825 59.7879" fill="#808388"/>
<path d="M123.145 0.427855C139.537 0.427855 152.825 13.7159 152.825 30.1065C152.825 46.4985 139.537 59.7879 123.145 59.7879" fill="#37373A"/>
<path d="M30.5468 63.3486C14.1562 63.3486 0.868164 76.6366 0.868164 93.0272C0.868164 109.419 14.1562 122.707 30.5468 122.707" fill="#808388"/>
<path d="M60.2253 63.3486C43.8346 63.3486 30.5466 76.6366 30.5466 93.0272C30.5466 109.419 43.8346 122.707 60.2253 122.707" fill="#37373A"/>
<path d="M60.2251 28.3759H24.0171V37.8732H46.9625C44.0811 44.1545 37.8145 48.5105 30.5465 48.5105C20.5478 48.5105 12.4425 40.2705 12.4425 30.1079C12.4425 19.9452 20.5478 11.7065 30.5465 11.7065C36.0625 11.7065 41.0025 14.2145 44.3225 18.1705H57.7251C53.1305 7.72386 42.6905 0.429198 30.5465 0.429198C14.1545 0.429198 0.866455 13.7159 0.866455 30.1079C0.866455 46.4985 14.1545 59.7879 30.5465 59.7879C46.9371 59.7879 60.2251 46.4985 60.2251 30.1079" fill="#37373A"/>
<path d="M121.364 28.3759H85.1558V37.8732H108.101C105.22 44.1545 98.9531 48.5105 91.6851 48.5105C81.6865 48.5105 73.5811 40.2705 73.5811 30.1079C73.5811 19.9452 81.6865 11.7065 91.6851 11.7065C97.2011 11.7065 102.141 14.2145 105.461 18.1705H118.864C114.268 7.72386 103.829 0.429198 91.6851 0.429198C75.2931 0.429198 62.0051 13.7159 62.0051 30.1079C62.0051 46.4985 75.2931 59.7879 91.6851 59.7879C108.076 59.7879 121.364 46.4985 121.364 30.1079" fill="#37373A"/>
<path d="M91.6855 111.428C81.6868 111.428 73.5815 103.189 73.5815 93.0266C73.5815 82.8639 81.6868 74.6252 91.6855 74.6252C101.684 74.6252 109.79 82.8639 109.79 93.0266C109.79 103.189 101.684 111.428 91.6855 111.428ZM109.79 63.9412V70.5852C104.927 65.8706 98.6815 63.3479 91.6855 63.3479C75.2948 63.3479 62.0068 76.6359 62.0068 93.0266C62.0068 109.419 75.2948 122.705 91.6855 122.705C98.6815 122.705 104.927 120.183 109.79 116.061V122.112H120.475V63.9412" fill="#37373A"/>
<path d="M166.602 104.966C163.28 108.92 158.342 111.43 152.824 111.43C142.826 111.43 134.72 103.191 134.72 93.0283C134.72 82.8656 142.826 74.627 152.824 74.627C158.342 74.627 163.28 77.135 166.602 81.091H180.003C175.408 70.6443 164.97 63.3496 152.824 63.3496C136.434 63.3496 123.146 76.6363 123.146 93.0283C123.146 109.419 136.434 122.707 152.824 122.707C164.97 122.707 175.408 115.411 180.003 104.966" fill="#37373A"/>
<path d="M239.41 93.885C239.015 93.2796 238.542 92.725 237.959 92.277C236.957 91.4836 235.715 90.9836 234.214 90.9836C231.073 90.9836 227.881 93.357 227.881 97.605C227.881 102.014 231.101 104.334 234.214 104.334C235.771 104.334 237.09 103.885 238.093 103.148C239.121 102.41 239.807 101.356 240.098 100.19H232.815V97.0236H244.635C244.689 98.317 244.503 100.3 243.766 101.934C241.943 105.997 237.75 107.793 234.238 107.793C228.407 107.793 223.947 103.28 223.947 97.605C223.947 91.7743 228.594 87.5263 234.291 87.5263C238.699 87.5263 242.577 90.3223 243.843 93.885" fill="#37373A"/>
<path d="M251.784 100.431L245.794 87.8972H250.042L253.737 96.7626L257.457 87.8972H261.68L255.716 100.431V107.423H251.784" fill="#37373A"/>
<path d="M263.816 87.894H274.767V91.3527H267.746V95.786H274.632V99.2433H267.746V103.966H274.767V107.422H263.816" fill="#37373A"/>
<path d="M280.939 97.6598C280.939 101.222 283.499 104.336 287.299 104.336C291.256 104.336 293.578 100.906 293.578 97.6878C293.578 94.4131 291.256 90.9838 287.272 90.9838C283.367 90.9838 280.939 94.2024 280.939 97.6318V97.6598ZM277.008 97.8171C277.008 91.5651 281.81 87.5264 287.244 87.5264C293.156 87.5264 297.511 92.1198 297.511 97.6598C297.511 103.2 293.184 107.794 287.22 107.794C281.23 107.794 277.008 103.07 277.008 97.8464" fill="#37373A"/>
<path d="M312.813 101.433L312.731 87.8971H316.507V107.422H313.022L304.025 93.9117L304.106 107.422H300.333V87.8971H303.841" fill="#37373A"/>
<path d="M334.818 93.885C334.423 93.2796 333.948 92.725 333.367 92.277C332.364 91.4836 331.123 90.9836 329.62 90.9836C326.48 90.9836 323.287 93.357 323.287 97.605C323.287 102.014 326.507 104.334 329.62 104.334C331.178 104.334 332.496 103.885 333.499 103.148C334.527 102.41 335.214 101.356 335.504 100.19H328.222V97.0236H340.043C340.096 98.317 339.91 100.3 339.172 101.934C337.35 105.997 333.156 107.793 329.646 107.793C323.815 107.793 319.354 103.28 319.354 97.605C319.354 91.7743 324 87.5263 329.698 87.5263C334.106 87.5263 337.984 90.3223 339.25 93.885" fill="#37373A"/>
<path d="M357.349 93.885C356.953 93.2796 356.481 92.725 355.898 92.277C354.896 91.4836 353.654 90.9836 352.153 90.9836C349.012 90.9836 345.82 93.357 345.82 97.605C345.82 102.014 349.04 104.334 352.153 104.334C353.71 104.334 355.029 103.885 356.032 103.148C357.06 102.41 357.745 101.356 358.037 100.19H350.754V97.0236H362.574C362.628 98.317 362.442 100.3 361.705 101.934C359.882 105.997 355.688 107.793 352.177 107.793C346.346 107.793 341.886 103.28 341.886 97.605C341.886 91.7743 346.533 87.5263 352.23 87.5263C356.637 87.5263 360.516 90.3223 361.782 93.885" fill="#37373A"/>
<path d="M365.291 107.423H369.221V87.8947H365.291V107.423Z" fill="#37373A"/>
<path d="M387.664 92.5399L384.895 100.456H390.515L387.664 92.5399ZM382.467 107.423H378.192L386.108 87.8972H389.565L397.296 107.423H392.995L391.571 103.596H383.864" fill="#37373A"/>
<path d="M399.275 87.894H405.184C408.219 87.894 409.96 88.3687 411.016 89.1367C412.626 90.298 413.496 92.2753 413.496 94.438C413.496 95.866 413.102 97.1313 412.442 98.082C411.596 99.3193 410.488 99.874 409.223 100.193L413.576 107.422H409.459L404.207 98.346H404.971C406.266 98.346 407.664 98.2647 408.482 97.6327C409.247 96.998 409.723 95.9713 409.723 94.782C409.723 93.594 409.14 92.514 408.271 91.9593C407.559 91.5113 406.61 91.3527 405.5 91.3527H403.206V107.422H399.275" fill="#37373A"/>
<path d="M418.535 91.3524H414.312V87.8937H426.663V91.3524H422.464V107.423H418.535" fill="#37373A"/>
<path d="M431.566 101.354C431.701 103.992 433.466 104.492 434.313 104.492C435.817 104.492 436.978 103.278 436.978 101.907C436.978 100.246 435.578 99.8231 432.86 98.7417C431.381 98.2137 427.98 96.9977 427.98 93.3057C427.98 89.5564 431.276 87.5271 434.442 87.5271C437.029 87.5271 440.46 88.8991 440.617 93.2244H436.738C436.581 92.3271 436.237 90.8257 434.313 90.8257C433.018 90.8257 431.91 91.7204 431.91 93.0417C431.882 94.4924 432.938 94.8631 436.237 96.2337C439.218 97.5271 440.881 98.9524 440.881 101.722C440.881 104.863 438.956 107.792 434.365 107.792C429.93 107.792 427.636 105.127 427.661 101.354" fill="#37373A"/>
<path d="M470.353 100.878C469.165 104.916 465.367 107.794 460.801 107.794C454.837 107.794 450.562 103.07 450.562 97.6318C450.562 92.4344 454.602 87.5264 460.774 87.5264C466.394 87.5531 469.59 91.6958 470.353 94.5451H466.213C465.603 93.1998 463.862 91.0118 460.75 90.9838C456.947 90.9838 454.494 94.1784 454.494 97.6318C454.494 101.194 457.053 104.336 460.774 104.336C464.259 104.336 465.841 101.59 466.213 100.878" fill="#37373A"/>
<path d="M473.044 87.894H483.995V91.3527H476.975V95.786H483.862V99.2433H476.975V103.966H483.995V107.422H473.044" fill="#37373A"/>
<path d="M499.587 101.433L499.506 87.8971H503.282V107.422H499.797L490.799 93.9117L490.881 107.422H487.107V87.8971H490.615" fill="#37373A"/>
<path d="M509.612 91.3524H505.389V87.8937H517.74V91.3524H513.542V107.423H509.612" fill="#37373A"/>
<path d="M519.795 87.894H530.746V91.3527H523.726V95.786H530.614V99.2433H523.726V103.966H530.746V107.422H519.795" fill="#37373A"/>
<path d="M533.779 87.894H539.689C542.724 87.894 544.465 88.3687 545.521 89.1367C547.131 90.298 548.001 92.2753 548.001 94.438C548.001 95.866 547.605 97.1313 546.945 98.082C546.101 99.3193 544.993 99.874 543.727 100.193L548.081 107.422H543.964L538.712 98.346H539.477C540.771 98.346 542.169 98.2647 542.987 97.6327C543.752 96.998 544.228 95.9713 544.228 94.782C544.228 93.594 543.647 92.514 542.776 91.9593C542.064 91.5113 541.115 91.3527 540.005 91.3527H537.709V107.422H533.779" fill="#37373A"/>
<path d="M395.392 15.9331V50.1878L431.503 50.1664L431.5 43.4104L403.413 43.4224V36.6664L430.443 36.6558L430.44 29.8384L403.412 29.8491V22.7838L430.845 22.7718L430.841 15.8918" fill="#37373A"/>
<path d="M437.667 57.0438L388.885 57.0718L388.889 63.8264L437.671 63.7998" fill="#37373A"/>
<path d="M461.272 42.1558C463.071 43.7051 465.117 45.1291 467.228 46.2651L471 41.1984C468.521 39.7958 465.916 37.5664 463.995 34.6544C462.011 31.8664 460.893 28.3971 460.891 24.1198L460.885 15.1944L452.64 15.1998L452.647 24.1251C452.649 28.4011 451.535 32.0584 449.553 35.0971C447.387 38.3824 444.599 40.9264 442.152 41.8891L445.445 47.4211C448.383 45.6958 450.737 43.9598 452.531 42.2224C454.453 40.4864 455.94 38.5024 456.868 36.8278C457.86 38.5638 459.472 40.4838 461.272 42.1558Z" fill="#37373A"/>
<path d="M492.462 69.2235L492.458 62.3448L462.482 62.3568L462.46 49.2821L454.032 49.2875L454.036 69.2461" fill="#37373A"/>
<path d="M464.859 30.9976L472.051 30.9936L472.061 52.9963L480.057 52.9923L480.038 14.7496L472.042 14.755L472.047 24.2376L464.855 24.2416" fill="#37373A"/>
<path d="M491.4 53.6049L491.378 14.7436L483.382 14.7476L483.405 53.6089" fill="#37373A"/>
<path d="M323.225 14.8375L314.796 14.8415L314.825 69.3229L323.255 69.3175" fill="#37373A"/>
<path d="M279.405 16.0399L279.409 22.8572L297.198 22.8479C297.882 29.2319 296.461 34.9959 292.992 40.2666C289.801 45.1466 284.706 48.8306 277.808 51.2679L280.793 57.3172C290.273 54.5239 297.212 49.4999 301.486 42.2452C305.821 34.9906 307.428 26.2506 306.305 16.0252" fill="#37373A"/>
<path d="M352.402 38.0986C351.238 39.8759 349.582 40.7652 347.557 40.7666C343.322 40.7679 340.681 36.8759 340.676 31.2892C340.673 28.5386 341.285 26.2519 342.512 24.4319C343.798 22.6119 345.454 21.6799 347.482 21.6799C349.566 21.6786 351.224 22.5666 352.392 24.3852C353.621 26.2052 354.236 28.4479 354.238 31.1999C354.241 34.0346 353.629 36.3212 352.402 38.0986ZM347.478 15.1959C342.938 15.1986 339.209 16.7439 336.29 19.8799C333.373 23.0159 331.944 26.8079 331.948 31.2532C331.952 35.6986 333.384 39.4879 336.308 42.6226C339.232 45.7559 342.962 47.3466 347.5 47.3452C352.1 47.3426 355.828 45.7492 358.748 42.6119C361.666 39.4759 363.096 35.6852 363.093 31.2399C363.089 26.7946 361.654 23.0052 358.73 19.8706C355.808 16.7372 352.076 15.1946 347.478 15.1959Z" fill="#37373A"/>
<path d="M384.1 29.467L376.684 29.471V14.8376L368.224 14.843L368.255 69.3243L376.684 69.319V36.723L384.104 36.719" fill="#37373A"/>
<path d="M525.55 49.5568L510.77 49.5608V38.8381L526.039 38.8341L526.035 32.1395L510.77 32.1448V22.7235L529.19 22.7195L529.188 15.8368L502.31 15.8541V56.3888L524.14 56.3755C526.5 56.3741 529.52 56.0928 531.874 55.7475V49.2581C531.522 49.2968 531.152 49.3328 530.755 49.3675C528.71 49.4928 526.974 49.5568 525.55 49.5568Z" fill="#37373A"/>
<path d="M546.356 14.7131L537.928 14.7171L537.937 31.2051L528.638 31.2104L528.644 38.4611L537.94 38.4558L537.956 69.1984L546.385 69.1931" fill="#37373A"/>
<path d="M244.397 36.8856C246.691 34.4683 248.425 31.6776 249.537 28.5163L259.083 28.5096L259.087 33.407L248.425 33.4136L248.428 40.231L259.091 40.2243L259.092 46.4843L267.647 46.479L267.628 14.8696L259.075 14.875L259.079 21.6923L250.839 21.6963C250.956 19.795 250.893 17.831 250.708 15.6856L224.056 15.699L224.06 22.5176L241.6 22.5083C241.48 27.0323 239.497 31.1243 235.595 34.8456C232.211 38.0696 227.959 40.475 222.883 42.0643L225.748 47.867C232.999 45.9416 239.259 42.2803 244.397 36.8856Z" fill="#37373A"/>
<path d="M252.45 65.0191C247.884 65.0231 245.238 62.1951 245.237 58.9951C245.236 55.7978 247.878 52.9671 252.445 52.9631C257.013 52.9605 259.657 55.7885 259.658 58.9858C259.66 62.1845 257.017 65.0151 252.45 65.0191ZM252.442 45.9311C242.593 45.9365 236.697 51.7045 236.7 59.0005C236.7 66.3005 242.604 72.0565 252.454 72.0498C262.304 72.0445 268.201 66.2778 268.2 58.9805C268.197 51.6831 262.292 45.9245 252.442 45.9311Z" fill="#37373A"/>
</svg>
